<svg width="14" height="14" viewBox="0 0 14 14" fill="none" xmlns="http://www.w3.org/2000/svg">
<path d="M13.7766 12.6597H0.223404C0.100026 12.6597 0 12.7597 0 12.8831C0 13.0065 0.100026 13.1065 0.223404 13.1065H13.7766C13.9 13.1065 14 13.0065 14 12.8831C14 12.7597 13.9 12.6597 13.7766 12.6597Z" fill="#C59D5F"/>
<path d="M13.7766 13.5532H0.223404C0.100026 13.5532 0 13.6532 0 13.7766C0 13.9 0.100026 14 0.223404 14H13.7766C13.9 14 14 13.9 14 13.7766C14 13.6532 13.9 13.5532 13.7766 13.5532Z" fill="#C59D5F"/>
<path d="M13.7766 0.893617H13.0319V0.670213C13.0319 0.300643 12.7312 0 12.3617 0C11.9922 0 11.6915 0.300643 11.6915 0.670213V0.893617H9.45745V0.670213C9.45745 0.300643 9.15677 0 8.78723 0C8.41769 0 8.11702 0.300643 8.11702 0.670213V0.893617H5.88298V0.670213C5.88298 0.300643 5.58234 0 5.21277 0C4.8432 0 4.54255 0.300643 4.54255 0.670213V0.893617H2.30851V0.670213C2.30851 0.300643 2.00787 0 1.6383 0C1.26873 0 0.968085 0.300643 0.968085 0.670213V0.893617H0.223404C0.100026 0.893617 0 0.993643 0 1.11702V11.9894C0 12.1127 0.100026 12.2128 0.223404 12.2128H13.7766C13.9 12.2128 14 12.1127 14 11.9894V1.11702C14 0.993643 13.9 0.893617 13.7766 0.893617ZM12.1383 0.670213C12.1383 0.547013 12.2385 0.446808 12.3617 0.446808C12.4849 0.446808 12.5851 0.547013 12.5851 0.670213V1.56383C12.5851 1.68703 12.4849 1.78723 12.3617 1.78723C12.2385 1.78723 12.1383 1.68703 12.1383 1.56383V0.670213ZM8.56383 0.670213C8.56383 0.547013 8.66403 0.446808 8.78723 0.446808C8.91043 0.446808 9.01064 0.547013 9.01064 0.670213V1.56383C9.01064 1.68703 8.91043 1.78723 8.78723 1.78723C8.66403 1.78723 8.56383 1.68703 8.56383 1.56383V0.670213ZM4.98936 0.670213C4.98936 0.547013 5.08957 0.446808 5.21277 0.446808C5.33597 0.446808 5.43617 0.547013 5.43617 0.670213V1.56383C5.43617 1.68703 5.33597 1.78723 5.21277 1.78723C5.08957 1.78723 4.98936 1.68703 4.98936 1.56383V0.670213ZM1.41489 0.670213C1.41489 0.547013 1.5151 0.446808 1.6383 0.446808C1.7615 0.446808 1.8617 0.547013 1.8617 0.670213V1.56383C1.8617 1.68703 1.7615 1.78723 1.6383 1.78723C1.5151 1.78723 1.41489 1.68703 1.41489 1.56383V0.670213ZM0.968085 1.34043V1.56383C0.968085 1.9334 1.26873 2.23404 1.6383 2.23404C2.00787 2.23404 2.30851 1.9334 2.30851 1.56383V1.34043H4.54255V1.56383C4.54255 1.9334 4.8432 2.23404 5.21277 2.23404C5.58234 2.23404 5.88298 1.9334 5.88298 1.56383V1.34043H8.11702V1.56383C8.11702 1.9334 8.41769 2.23404 8.78723 2.23404C9.15677 2.23404 9.45745 1.9334 9.45745 1.56383V1.34043H11.6915V1.56383C11.6915 1.9334 11.9922 2.23404 12.3617 2.23404C12.7312 2.23404 13.0319 1.9334 13.0319 1.56383V1.34043H13.5532V3.64298H0.446809V1.34043H0.968085ZM0.446809 11.766V4.08979H13.5532V11.766H0.446809Z" fill="#C59D5F"/>
<path d="M12.2733 6.75586H11.3797C11.2562 6.75586 11.1562 6.85589 11.1562 6.97927C11.1562 7.10265 11.2562 7.20268 11.3797 7.20268H12.2733C12.3967 7.20268 12.4967 7.10265 12.4967 6.97927C12.4967 6.85589 12.3967 6.75586 12.2733 6.75586Z" fill="#C59D5F"/>
<path d="M9.85921 6.75586H8.96559C8.84218 6.75586 8.74219 6.85589 8.74219 6.97927C8.74219 7.10265 8.84218 7.20268 8.96559 7.20268H9.85921C9.98262 7.20268 10.0826 7.10265 10.0826 6.97927C10.0826 6.85589 9.98262 6.75586 9.85921 6.75586Z" fill="#C59D5F"/>
<path d="M7.44515 6.75586H6.55153C6.42815 6.75586 6.32812 6.85589 6.32812 6.97927C6.32812 7.10265 6.42815 7.20268 6.55153 7.20268H7.44515C7.56856 7.20268 7.66855 7.10265 7.66855 6.97927C7.66855 6.85589 7.56856 6.75586 7.44515 6.75586Z" fill="#C59D5F"/>
<path d="M5.03499 6.75586H4.14137C4.01799 6.75586 3.91797 6.85589 3.91797 6.97927C3.91797 7.10265 4.01799 7.20268 4.14137 7.20268H5.03499C5.15837 7.20268 5.25839 7.10265 5.25839 6.97927C5.25839 6.85589 5.15837 6.75586 5.03499 6.75586Z" fill="#C59D5F"/>
<path d="M2.62093 6.75586H1.72731C1.60393 6.75586 1.50391 6.85589 1.50391 6.97927C1.50391 7.10265 1.60393 7.20268 1.72731 7.20268H2.62093C2.74431 7.20268 2.84433 7.10265 2.84433 6.97927C2.84433 6.85589 2.74431 6.75586 2.62093 6.75586Z" fill="#C59D5F"/>
<path d="M9.85921 8.36426H8.96559C8.84218 8.36426 8.74219 8.46428 8.74219 8.58766C8.74219 8.71104 8.84218 8.81107 8.96559 8.81107H9.85921C9.98262 8.81107 10.0826 8.71104 10.0826 8.58766C10.0826 8.46428 9.98262 8.36426 9.85921 8.36426Z" fill="#C59D5F"/>
<path d="M7.44515 8.36426H6.55153C6.42815 8.36426 6.32812 8.46428 6.32812 8.58766C6.32812 8.71104 6.42815 8.81107 6.55153 8.81107H7.44515C7.56856 8.81107 7.66855 8.71104 7.66855 8.58766C7.66855 8.46428 7.56856 8.36426 7.44515 8.36426Z" fill="#C59D5F"/>
<path d="M5.03499 8.36426H4.14137C4.01799 8.36426 3.91797 8.46428 3.91797 8.58766C3.91797 8.71104 4.01799 8.81107 4.14137 8.81107H5.03499C5.15837 8.81107 5.25839 8.71104 5.25839 8.58766C5.25839 8.46428 5.15837 8.36426 5.03499 8.36426Z" fill="#C59D5F"/>
<path d="M2.62093 8.36426H1.72731C1.60393 8.36426 1.50391 8.46428 1.50391 8.58766C1.50391 8.71104 1.60393 8.81107 1.72731 8.81107H2.62093C2.74431 8.81107 2.84433 8.71104 2.84433 8.58766C2.84433 8.46428 2.74431 8.36426 2.62093 8.36426Z" fill="#C59D5F"/>
<path d="M9.85921 9.97266H8.96559C8.84218 9.97266 8.74219 10.0727 8.74219 10.1961C8.74219 10.3194 8.84218 10.4195 8.96559 10.4195H9.85921C9.98262 10.4195 10.0826 10.3194 10.0826 10.1961C10.0826 10.0727 9.98262 9.97266 9.85921 9.97266Z" fill="#C59D5F"/>
<path d="M12.2733 8.36426H11.3797C11.2562 8.36426 11.1562 8.46428 11.1562 8.58766C11.1562 8.71104 11.2562 8.81107 11.3797 8.81107H12.2733C12.3967 8.81107 12.4967 8.71104 12.4967 8.58766C12.4967 8.46428 12.3967 8.36426 12.2733 8.36426Z" fill="#C59D5F"/>
<path d="M12.2733 9.97266H11.3797C11.2562 9.97266 11.1562 10.0727 11.1562 10.1961C11.1562 10.3194 11.2562 10.4195 11.3797 10.4195H12.2733C12.3967 10.4195 12.4967 10.3194 12.4967 10.1961C12.4967 10.0727 12.3967 9.97266 12.2733 9.97266Z" fill="#C59D5F"/>
<path d="M7.44515 9.97266H6.55153C6.42815 9.97266 6.32812 10.0727 6.32812 10.1961C6.32812 10.3194 6.42815 10.4195 6.55153 10.4195H7.44515C7.56856 10.4195 7.66855 10.3194 7.66855 10.1961C7.66855 10.0727 7.56856 9.97266 7.44515 9.97266Z" fill="#C59D5F"/>
<path d="M5.03499 9.97266H4.14137C4.01799 9.97266 3.91797 10.0727 3.91797 10.1961C3.91797 10.3194 4.01799 10.4195 4.14137 10.4195H5.03499C5.15837 10.4195 5.25839 10.3194 5.25839 10.1961C5.25839 10.0727 5.15837 9.97266 5.03499 9.97266Z" fill="#C59D5F"/>
<path d="M2.62093 9.97266H1.72731C1.60393 9.97266 1.50391 10.0727 1.50391 10.1961C1.50391 10.3194 1.60393 10.4195 1.72731 10.4195H2.62093C2.74431 10.4195 2.84433 10.3194 2.84433 10.1961C2.84433 10.0727 2.74431 9.97266 2.62093 9.97266Z" fill="#C59D5F"/>
<path d="M12.2733 5.14746H11.3797C11.2562 5.14746 11.1562 5.24749 11.1562 5.37087C11.1562 5.49424 11.2562 5.59427 11.3797 5.59427H12.2733C12.3967 5.59427 12.4967 5.49424 12.4967 5.37087C12.4967 5.24749 12.3967 5.14746 12.2733 5.14746Z" fill="#C59D5F"/>
<path d="M9.85921 5.14746H8.96559C8.84218 5.14746 8.74219 5.24749 8.74219 5.37087C8.74219 5.49424 8.84218 5.59427 8.96559 5.59427H9.85921C9.98262 5.59427 10.0826 5.49424 10.0826 5.37087C10.0826 5.24749 9.98262 5.14746 9.85921 5.14746Z" fill="#C59D5F"/>
<path d="M7.44515 5.14746H6.55153C6.42815 5.14746 6.32812 5.24749 6.32812 5.37087C6.32812 5.49424 6.42815 5.59427 6.55153 5.59427H7.44515C7.56856 5.59427 7.66855 5.49424 7.66855 5.37087C7.66855 5.24749 7.56856 5.14746 7.44515 5.14746Z" fill="#C59D5F"/>
<path d="M5.03499 5.14746H4.14137C4.01799 5.14746 3.91797 5.24749 3.91797 5.37087C3.91797 5.49424 4.01799 5.59427 4.14137 5.59427H5.03499C5.15837 5.59427 5.25839 5.49424 5.25839 5.37087C5.25839 5.24749 5.15837 5.14746 5.03499 5.14746Z" fill="#C59D5F"/>
<path d="M2.62093 5.14746H1.72731C1.60393 5.14746 1.50391 5.24749 1.50391 5.37087C1.50391 5.49424 1.60393 5.59427 1.72731 5.59427H2.62093C2.74431 5.59427 2.84433 5.49424 2.84433 5.37087C2.84433 5.24749 2.74431 5.14746 2.62093 5.14746Z" fill="#C59D5F"/>
</svg>
