<svg width="16" height="20" viewBox="0 0 16 20" fill="none" xmlns="http://www.w3.org/2000/svg">
<path d="M8 0.927246C9.68013 0.927246 11.0495 2.25759 11.1123 3.92236L11.1146 4.04183H15.0417C15.4156 4.04183 15.7188 4.34497 15.7188 4.71891C15.7188 5.06948 15.4523 5.35783 15.1109 5.3925L15.0417 5.396H14.4507L13.5282 17.6213C13.4375 18.8221 12.4368 19.7502 11.2326 19.7502H4.7674C3.5632 19.7502 2.56247 18.8221 2.47184 17.6213L1.54875 5.396H0.958333C0.607762 5.396 0.319419 5.12956 0.284746 4.78814L0.28125 4.71891C0.28125 4.36834 0.547682 4.08 0.889106 4.04532L0.958333 4.04183H4.88542C4.88542 2.32169 6.27986 0.927246 8 0.927246ZM13.0928 5.396H2.90719L3.82217 17.5194C3.85948 18.0139 4.27155 18.396 4.7674 18.396H11.2326C11.7285 18.396 12.1405 18.0139 12.1778 17.5194L13.0928 5.396ZM9.76042 8.23974C10.111 8.23974 10.3993 8.50618 10.434 8.8476L10.4375 8.91683V14.8752C10.4375 15.2491 10.1344 15.5522 9.76042 15.5522C9.40985 15.5522 9.1215 15.2858 9.08683 14.9444L9.08333 14.8752V8.91683C9.08333 8.54289 9.38647 8.23974 9.76042 8.23974ZM6.23958 8.23974C6.59016 8.23974 6.8785 8.50618 6.91317 8.8476L6.91667 8.91683V14.8752C6.91667 15.2491 6.61353 15.5522 6.23958 15.5522C5.88901 15.5522 5.60067 15.2858 5.566 14.9444L5.5625 14.8752V8.91683C5.5625 8.54289 5.86564 8.23974 6.23958 8.23974ZM8 2.28141C7.06128 2.28141 6.29416 3.01616 6.24237 3.94193L6.23958 4.04183H9.76042C9.76042 3.06958 8.97225 2.28141 8 2.28141Z" fill="#C59D5F"/>
</svg>
