<svg width="19" height="15" viewBox="0 0 19 15" fill="none" xmlns="http://www.w3.org/2000/svg">
<path d="M17.3301 0.263672H1.66992C0.750277 0.263672 0 1.01313 0 1.93359V13.0664C0 13.9838 0.746938 14.7363 1.66992 14.7363H17.3301C18.2474 14.7363 19 13.9894 19 13.0664V1.93359C19 1.01625 18.2531 0.263672 17.3301 0.263672ZM17.0995 1.37695L9.5354 8.94107L1.9059 1.37695H17.0995ZM1.11328 12.8359V2.15881L6.47481 7.47436L1.11328 12.8359ZM1.90048 13.623L7.26539 8.25814L9.14523 10.1219C9.36284 10.3376 9.71401 10.3369 9.93073 10.1201L11.7637 8.2872L17.0995 13.623H1.90048ZM17.8867 12.8358L12.5509 7.5L17.8867 2.16412V12.8358Z" fill="#C59D5F"/>
</svg>
