<svg width="18" height="19" viewBox="0 0 18 19" fill="none" xmlns="http://www.w3.org/2000/svg">
<path d="M8.99971 0C4.53371 0 0.900391 3.45165 0.900391 7.69434C0.900391 9.44501 1.5043 11.0937 2.64685 12.4623C4.12624 14.2343 8.42835 18.4417 8.61073 18.6199L8.99965 19L9.38862 18.62C9.57112 18.4416 13.8745 14.2333 15.3541 12.4608C16.4957 11.0933 17.099 9.44511 17.099 7.69434C17.099 3.45165 13.4657 0 8.99971 0ZM14.504 11.8203C13.3129 13.2472 10.1141 16.4214 8.99971 17.5193C7.88542 16.4215 4.68778 13.2482 3.49694 11.8218C2.50808 10.6373 1.98538 9.21005 1.98538 7.69434C1.98538 4.02 5.13197 1.03074 8.99971 1.03074C12.8674 1.03074 16.014 4.02 16.014 7.69434C16.014 9.21016 15.4918 10.6369 14.504 11.8203Z" fill="#C59D5F"/>
<path d="M8.99933 3.0542C6.35575 3.0542 4.20508 5.09734 4.20508 7.60875C4.20508 10.1202 6.3558 12.1633 8.99933 12.1633C11.6429 12.1633 13.7936 10.1201 13.7936 7.60875C13.7936 5.09739 11.6429 3.0542 8.99933 3.0542ZM8.99933 11.1326C6.95401 11.1326 5.29007 9.55175 5.29007 7.60875C5.29007 5.66569 6.95407 4.08494 8.99933 4.08494C11.0446 4.08494 12.7085 5.66574 12.7086 7.60875C12.7086 9.5518 11.0447 11.1326 8.99933 11.1326Z" fill="#C59D5F"/>
</svg>
