<svg width="19" height="19" viewBox="0 0 19 19" fill="none" xmlns="http://www.w3.org/2000/svg">
<path d="M15.0158 11.7699C14.6269 11.3649 14.1577 11.1484 13.6604 11.1484C13.1672 11.1484 12.694 11.3609 12.289 11.7659L11.0218 13.0291C10.9175 12.973 10.8133 12.9208 10.713 12.8687C10.5687 12.7965 10.4323 12.7284 10.316 12.6562C9.12905 11.9023 8.05033 10.9198 7.01573 9.64861C6.51447 9.01502 6.17763 8.48168 5.93301 7.94032C6.26184 7.63956 6.56661 7.32678 6.86335 7.02602C6.97563 6.91374 7.08792 6.79744 7.2002 6.68516C8.04231 5.84305 8.04231 4.7523 7.2002 3.91019L6.10545 2.81544C5.98113 2.69112 5.85281 2.5628 5.73251 2.43448C5.4919 2.18585 5.23927 1.92921 4.97861 1.6886C4.58963 1.30364 4.12447 1.09912 3.63524 1.09912C3.14601 1.09912 2.67282 1.30364 2.27181 1.6886C2.2678 1.69261 2.2678 1.69261 2.26379 1.69662L0.90036 3.07208C0.38707 3.58537 0.0943341 4.21094 0.0301728 4.93677C-0.0660692 6.10771 0.278798 7.19845 0.543463 7.91225C1.1931 9.66465 2.16354 11.2887 3.61118 13.0291C5.36759 15.1264 7.4809 16.7825 9.89497 17.9495C10.8173 18.3866 12.0484 18.9039 13.4238 18.9921C13.5081 18.9961 13.5963 19.0001 13.6765 19.0001C14.6028 19.0001 15.3808 18.6673 15.9903 18.0056C15.9943 17.9976 16.0023 17.9936 16.0063 17.9856C16.2149 17.7329 16.4555 17.5044 16.7081 17.2597C16.8805 17.0953 17.057 16.9229 17.2294 16.7424C17.6264 16.3294 17.8349 15.8482 17.8349 15.355C17.8349 14.8577 17.6224 14.3805 17.2174 13.9795L15.0158 11.7699ZM16.4515 15.9926C16.4474 15.9926 16.4474 15.9966 16.4515 15.9926C16.2951 16.161 16.1347 16.3134 15.9622 16.4818C15.7016 16.7304 15.4369 16.9911 15.1883 17.2838C14.7833 17.7169 14.3061 17.9214 13.6805 17.9214C13.6203 17.9214 13.5562 17.9214 13.496 17.9174C12.305 17.8412 11.1982 17.376 10.3682 16.979C8.09846 15.8803 6.10545 14.3204 4.44928 12.3434C3.08184 10.6952 2.16755 9.17141 1.56202 7.5353C1.18909 6.53679 1.05274 5.75883 1.11289 5.02499C1.153 4.55581 1.33345 4.16683 1.66629 3.834L3.03372 2.46656C3.23022 2.28209 3.43874 2.18184 3.64326 2.18184C3.89589 2.18184 4.10041 2.33423 4.22873 2.46255C4.23274 2.46656 4.23675 2.47057 4.24076 2.47458C4.48537 2.70315 4.71796 2.93975 4.96257 3.19238C5.08688 3.32071 5.21521 3.44903 5.34353 3.58136L6.43828 4.67611C6.86335 5.10118 6.86335 5.49417 6.43828 5.91924C6.32199 6.03553 6.20971 6.15182 6.09341 6.2641C5.75657 6.60897 5.43576 6.92978 5.08688 7.24256C5.07887 7.25058 5.07084 7.25459 5.06683 7.26261C4.72197 7.60748 4.78613 7.94433 4.85831 8.1729C4.86232 8.18493 4.86633 8.19696 4.87034 8.20899C5.15506 8.89873 5.55606 9.54836 6.1656 10.3223L6.16961 10.3263C7.27639 11.6897 8.44332 12.7524 9.73056 13.5665C9.89497 13.6707 10.0634 13.7549 10.2238 13.8351C10.3682 13.9073 10.5045 13.9755 10.6208 14.0477C10.6368 14.0557 10.6529 14.0677 10.6689 14.0757C10.8053 14.1439 10.9336 14.176 11.0659 14.176C11.3988 14.176 11.6073 13.9675 11.6754 13.8993L13.0469 12.5278C13.1832 12.3915 13.3998 12.2271 13.6524 12.2271C13.901 12.2271 14.1056 12.3835 14.2299 12.5198C14.2339 12.5238 14.2339 12.5238 14.2379 12.5278L16.4474 14.7374C16.8605 15.1464 16.8605 15.5675 16.4515 15.9926Z" fill="#C59D5F"/>
<path d="M10.2679 4.51973C11.3185 4.69617 12.2729 5.19342 13.0348 5.95534C13.7967 6.71725 14.29 7.67165 14.4704 8.72229C14.5145 8.98696 14.7431 9.17142 15.0038 9.17142C15.0359 9.17142 15.0639 9.16741 15.096 9.1634C15.3928 9.11528 15.5893 8.83458 15.5411 8.53783C15.3246 7.26663 14.7231 6.10772 13.8048 5.18941C12.8865 4.2711 11.7275 3.66959 10.4563 3.45305C10.1596 3.40493 9.88291 3.60142 9.83078 3.89416C9.77865 4.18689 9.97113 4.47161 10.2679 4.51973Z" fill="#C59D5F"/>
<path d="M18.9784 8.3813C18.6215 6.28804 17.635 4.38325 16.1192 2.86744C14.6034 1.35163 12.6986 0.365151 10.6054 0.00825334C10.3126 -0.0438777 10.0359 0.156626 9.98381 0.449362C9.93569 0.746108 10.1322 1.0228 10.4289 1.07493C12.2976 1.39173 14.0019 2.27796 15.3573 3.62936C16.7127 4.98476 17.5949 6.68905 17.9117 8.55775C17.9558 8.82241 18.1844 9.00688 18.4451 9.00688C18.4772 9.00688 18.5052 9.00286 18.5373 8.99885C18.83 8.95474 19.0305 8.67404 18.9784 8.3813Z" fill="#C59D5F"/>
</svg>
