<svg width="24" height="22" viewBox="0 0 24 22" fill="none" xmlns="http://www.w3.org/2000/svg">
<g clip-path="url(#clip0_1_7644)">
<path d="M21.5159 19.1187L20.147 5.41677C20.1176 5.11258 19.8292 4.88225 19.4919 4.88225H16.6759C16.6367 2.59643 14.5345 0.749512 11.9532 0.749512C9.37185 0.749512 7.26962 2.59643 7.23051 4.88225H4.41451C4.07229 4.88225 3.78873 5.11258 3.7594 5.41677L2.39051 19.1187C2.39051 19.1361 2.38562 19.1535 2.38562 19.1709C2.38562 20.731 3.99407 21.9999 5.97407 21.9999H17.9323C19.9123 21.9999 21.5208 20.731 21.5208 19.1709C21.5208 19.1535 21.5208 19.1361 21.5159 19.1187ZM11.9532 1.92285C13.8061 1.92285 15.3167 3.24393 15.3559 4.88225H8.55051C8.58963 3.24393 10.1003 1.92285 11.9532 1.92285ZM17.9323 20.8266H5.97407C4.73229 20.8266 3.72518 20.0965 3.70562 19.1969L5.01584 6.05993H7.22562V7.84166C7.22562 8.16759 7.51896 8.42833 7.88562 8.42833C8.25229 8.42833 8.54563 8.16759 8.54563 7.84166V6.05993H15.3559V7.84166C15.3559 8.16759 15.6492 8.42833 16.0159 8.42833C16.3825 8.42833 16.6759 8.16759 16.6759 7.84166V6.05993H18.8856L20.2007 19.1969C20.1812 20.0965 19.1692 20.8266 17.9323 20.8266Z" fill="#ABB8C3"/>
</g>
<defs>
<clipPath id="clip0_1_7644">
<rect width="23.9067" height="21.2504" fill="white" transform="translate(0 0.749512)"/>
</clipPath>
</defs>
</svg>
